<svg width="223" height="118" viewBox="0 0 223 118" fill="none" xmlns="http://www.w3.org/2000/svg">
<path fill-rule="evenodd" clip-rule="evenodd" d="M0 35.1211L5.20923 32.8885L13.2092 51.5551L29.0043 56.8201L27.2121 62.1967L9.00248 56.1269L0 35.1211Z" fill="black"/>
<path fill-rule="evenodd" clip-rule="evenodd" d="M0 115.067L5.20923 117.299L13.2092 98.6329L29.0043 93.3679L27.2121 87.9912L9.00248 94.0611L0 115.067Z" fill="black"/>
<path fill-rule="evenodd" clip-rule="evenodd" d="M95 35.1211L89.7908 32.8885L81.7908 51.5551L65.9957 56.8201L67.7879 62.1967L85.9975 56.1269L95 35.1211Z" fill="black"/>
<path fill-rule="evenodd" clip-rule="evenodd" d="M95 115.067L89.7908 117.299L81.7908 98.6329L65.9957 93.3679L67.7879 87.9912L85.9975 94.0611L95 115.067Z" fill="black"/>
<path d="M13.5411 74.5295L35.4915 82.9311V90.8013L7.49731 78.448V73.2344L13.5411 74.5295ZM35.4915 67.6555L13.5411 76.1899L7.49731 77.3522V72.1385L35.4915 59.8184V67.6555Z" fill="black"/>
<path d="M56.2021 58.4458L43.6495 93.4469H39.4653L52.04 58.4458H56.2021Z" fill="black"/>
<path d="M81.4589 74.5295L59.5085 82.9311V90.8013L87.5027 78.448V73.2344L81.4589 74.5295ZM59.5085 67.6555L81.4589 76.1899L87.5027 77.3522V72.1385L59.5085 59.8184V67.6555Z" fill="black"/>
<path fill-rule="evenodd" clip-rule="evenodd" d="M19.6072 5.66747C19.6072 2.53741 17.0697 0 13.9397 0C10.8096 0 8.27222 2.53741 8.27222 5.66747C8.27222 8.02946 9.71713 10.054 11.7713 10.9053L13.8142 23.1631L14.0918 24.8283L15.6592 25.4553L27.7662 30.2981L25.2746 36.8386L47.9445 56.6747L70.6144 36.8386L68.1228 30.2981L80.2297 25.4553L81.7972 24.8283L82.0748 23.1631L84.1177 10.9053C86.1719 10.054 87.6168 8.02946 87.6168 5.66747C87.6168 2.53741 85.0794 0 81.9493 0C78.8192 0 76.2818 2.53741 76.2818 5.66747C76.2818 7.35976 77.0235 8.87881 78.1996 9.91728L76.4339 20.5114L65.9865 24.6904L63.0578 17.0024H32.8312L29.9025 24.6904L19.4551 20.5114L17.6894 9.91728C18.8654 8.87881 19.6072 7.35976 19.6072 5.66747Z" fill="black"/>
<path d="M118.562 27.8997V50.6497H113.094V27.8997H118.562ZM131.031 45.8997C131.031 45.6081 130.932 45.3581 130.734 45.1497C130.547 44.931 130.214 44.7331 129.734 44.556C129.255 44.3685 128.583 44.181 127.719 43.9935C126.896 43.8164 126.12 43.582 125.391 43.2903C124.672 42.9987 124.042 42.6445 123.5 42.2278C122.958 41.8112 122.531 41.3164 122.219 40.7435C121.917 40.1706 121.766 39.5143 121.766 38.7747C121.766 38.056 121.917 37.3789 122.219 36.7435C122.531 36.0976 122.984 35.5299 123.578 35.0403C124.182 34.5403 124.917 34.1497 125.781 33.8685C126.646 33.5768 127.63 33.431 128.734 33.431C130.255 33.431 131.568 33.6653 132.672 34.1341C133.776 34.5924 134.625 35.2383 135.219 36.0716C135.823 36.8945 136.125 37.8476 136.125 38.931H130.859C130.859 38.5039 130.786 38.1393 130.641 37.8372C130.505 37.5351 130.281 37.306 129.969 37.1497C129.656 36.9831 129.24 36.8997 128.719 36.8997C128.354 36.8997 128.021 36.9674 127.719 37.1028C127.427 37.2383 127.193 37.4258 127.016 37.6653C126.839 37.9049 126.75 38.1862 126.75 38.5091C126.75 38.7383 126.802 38.9466 126.906 39.1341C127.021 39.3112 127.193 39.4778 127.422 39.6341C127.651 39.7799 127.943 39.9153 128.297 40.0403C128.651 40.1549 129.078 40.2591 129.578 40.3528C130.714 40.5612 131.776 40.8581 132.766 41.2435C133.755 41.6289 134.557 42.1758 135.172 42.8841C135.797 43.5924 136.109 44.5456 136.109 45.7435C136.109 46.4935 135.938 47.1862 135.594 47.8216C135.25 48.4466 134.755 48.9987 134.109 49.4778C133.464 49.9466 132.688 50.3112 131.781 50.5716C130.875 50.832 129.854 50.9622 128.719 50.9622C127.104 50.9622 125.74 50.6758 124.625 50.1028C123.51 49.5195 122.667 48.7903 122.094 47.9153C121.531 47.0299 121.25 46.1341 121.25 45.2278H126.156C126.177 45.7487 126.302 46.1758 126.531 46.5091C126.771 46.8424 127.089 47.0872 127.484 47.2435C127.88 47.3997 128.339 47.4778 128.859 47.4778C129.339 47.4778 129.734 47.4101 130.047 47.2747C130.37 47.1393 130.615 46.957 130.781 46.7278C130.948 46.4883 131.031 46.2122 131.031 45.8997ZM147.438 45.8997C147.438 45.6081 147.339 45.3581 147.141 45.1497C146.953 44.931 146.62 44.7331 146.141 44.556C145.661 44.3685 144.99 44.181 144.125 43.9935C143.302 43.8164 142.526 43.582 141.797 43.2903C141.078 42.9987 140.448 42.6445 139.906 42.2278C139.365 41.8112 138.938 41.3164 138.625 40.7435C138.323 40.1706 138.172 39.5143 138.172 38.7747C138.172 38.056 138.323 37.3789 138.625 36.7435C138.938 36.0976 139.391 35.5299 139.984 35.0403C140.589 34.5403 141.323 34.1497 142.188 33.8685C143.052 33.5768 144.036 33.431 145.141 33.431C146.661 33.431 147.974 33.6653 149.078 34.1341C150.182 34.5924 151.031 35.2383 151.625 36.0716C152.229 36.8945 152.531 37.8476 152.531 38.931H147.266C147.266 38.5039 147.193 38.1393 147.047 37.8372C146.911 37.5351 146.688 37.306 146.375 37.1497C146.062 36.9831 145.646 36.8997 145.125 36.8997C144.76 36.8997 144.427 36.9674 144.125 37.1028C143.833 37.2383 143.599 37.4258 143.422 37.6653C143.245 37.9049 143.156 38.1862 143.156 38.5091C143.156 38.7383 143.208 38.9466 143.312 39.1341C143.427 39.3112 143.599 39.4778 143.828 39.6341C144.057 39.7799 144.349 39.9153 144.703 40.0403C145.057 40.1549 145.484 40.2591 145.984 40.3528C147.12 40.5612 148.182 40.8581 149.172 41.2435C150.161 41.6289 150.964 42.1758 151.578 42.8841C152.203 43.5924 152.516 44.5456 152.516 45.7435C152.516 46.4935 152.344 47.1862 152 47.8216C151.656 48.4466 151.161 48.9987 150.516 49.4778C149.87 49.9466 149.094 50.3112 148.188 50.5716C147.281 50.832 146.26 50.9622 145.125 50.9622C143.51 50.9622 142.146 50.6758 141.031 50.1028C139.917 49.5195 139.073 48.7903 138.5 47.9153C137.938 47.0299 137.656 46.1341 137.656 45.2278H142.562C142.583 45.7487 142.708 46.1758 142.938 46.5091C143.177 46.8424 143.495 47.0872 143.891 47.2435C144.286 47.3997 144.745 47.4778 145.266 47.4778C145.745 47.4778 146.141 47.4101 146.453 47.2747C146.776 47.1393 147.021 46.957 147.188 46.7278C147.354 46.4883 147.438 46.2122 147.438 45.8997ZM164.859 46.5403V33.7435H170.141V50.6497H165.203L164.859 46.5403ZM165.359 43.1028L166.734 43.0716C166.734 44.207 166.599 45.2591 166.328 46.2278C166.057 47.1862 165.656 48.0195 165.125 48.7278C164.604 49.4362 163.958 49.9883 163.188 50.3841C162.427 50.7695 161.547 50.9622 160.547 50.9622C159.714 50.9622 158.948 50.8476 158.25 50.6185C157.562 50.3789 156.969 50.0091 156.469 49.5091C155.969 48.9987 155.578 48.3476 155.297 47.556C155.026 46.7539 154.891 45.7956 154.891 44.681V33.7435H160.156V44.7122C160.156 45.0872 160.203 45.4101 160.297 45.681C160.391 45.9518 160.526 46.181 160.703 46.3685C160.88 46.5456 161.099 46.681 161.359 46.7747C161.63 46.8581 161.938 46.8997 162.281 46.8997C163.073 46.8997 163.693 46.7331 164.141 46.3997C164.589 46.0664 164.901 45.6133 165.078 45.0403C165.266 44.4674 165.359 43.8216 165.359 43.1028ZM181.234 50.9622C179.859 50.9622 178.63 50.7487 177.547 50.3216C176.464 49.8841 175.547 49.2851 174.797 48.5247C174.057 47.7643 173.49 46.8893 173.094 45.8997C172.708 44.9101 172.516 43.8633 172.516 42.7591V42.1653C172.516 40.9258 172.688 39.7799 173.031 38.7278C173.375 37.6653 173.885 36.7383 174.562 35.9466C175.24 35.1549 176.089 34.5403 177.109 34.1028C178.13 33.6549 179.318 33.431 180.672 33.431C181.87 33.431 182.943 33.6237 183.891 34.0091C184.839 34.3945 185.641 34.9466 186.297 35.6653C186.964 36.3841 187.469 37.2539 187.812 38.2747C188.167 39.2956 188.344 40.4414 188.344 41.7122V43.8528H174.531V40.556H183.203V40.1497C183.214 39.5872 183.115 39.1081 182.906 38.7122C182.708 38.3164 182.417 38.0143 182.031 37.806C181.646 37.5976 181.177 37.4935 180.625 37.4935C180.052 37.4935 179.578 37.6185 179.203 37.8685C178.839 38.1185 178.552 38.4622 178.344 38.8997C178.146 39.3268 178.005 39.8216 177.922 40.3841C177.839 40.9466 177.797 41.5403 177.797 42.1653V42.7591C177.797 43.3841 177.88 43.9518 178.047 44.4622C178.224 44.9726 178.474 45.4101 178.797 45.7747C179.13 46.1289 179.526 46.4049 179.984 46.6028C180.453 46.8008 180.984 46.8997 181.578 46.8997C182.297 46.8997 183.005 46.7643 183.703 46.4935C184.401 46.2226 185 45.7747 185.5 45.1497L187.891 47.9935C187.547 48.4831 187.057 48.957 186.422 49.4153C185.797 49.8737 185.047 50.2487 184.172 50.5403C183.297 50.8216 182.318 50.9622 181.234 50.9622ZM123.75 65.8997V88.6497H118.266V65.8997H123.75ZM130.594 65.8997V70.1341H111.578V65.8997H130.594ZM136.953 75.931V88.6497H131.688V71.7435H136.609L136.953 75.931ZM141.953 71.6185L141.859 76.5091C141.651 76.4883 141.37 76.4622 141.016 76.431C140.661 76.3997 140.365 76.3841 140.125 76.3841C139.51 76.3841 138.979 76.457 138.531 76.6028C138.094 76.7383 137.729 76.9466 137.438 77.2278C137.156 77.4987 136.948 77.8424 136.812 78.2591C136.688 78.6758 136.63 79.1601 136.641 79.7122L135.688 79.0872C135.688 77.9518 135.797 76.9206 136.016 75.9935C136.245 75.056 136.568 74.2487 136.984 73.5716C137.401 72.8841 137.906 72.3581 138.5 71.9935C139.094 71.6185 139.76 71.431 140.5 71.431C140.76 71.431 141.016 71.4466 141.266 71.4778C141.526 71.5091 141.755 71.556 141.953 71.6185ZM152.078 84.3997V77.431C152.078 76.9518 152.01 76.5403 151.875 76.1966C151.74 75.8528 151.526 75.5872 151.234 75.3997C150.943 75.2018 150.552 75.1028 150.062 75.1028C149.667 75.1028 149.328 75.1706 149.047 75.306C148.766 75.4414 148.552 75.6445 148.406 75.9153C148.26 76.1862 148.188 76.5299 148.188 76.9466H142.922C142.922 76.1653 143.094 75.4414 143.438 74.7747C143.792 74.0976 144.292 73.5091 144.938 73.0091C145.594 72.5091 146.375 72.1237 147.281 71.8528C148.198 71.5716 149.219 71.431 150.344 71.431C151.688 71.431 152.885 71.6549 153.938 72.1028C155 72.5508 155.839 73.2226 156.453 74.1185C157.068 75.0039 157.375 76.1185 157.375 77.4622V84.3841C157.375 85.4883 157.438 86.3268 157.562 86.8997C157.688 87.4622 157.865 87.957 158.094 88.3841V88.6497H152.812C152.562 88.1289 152.375 87.4935 152.25 86.7435C152.135 85.9831 152.078 85.2018 152.078 84.3997ZM152.719 78.3216L152.75 81.1341H150.422C149.932 81.1341 149.516 81.2018 149.172 81.3372C148.839 81.4726 148.568 81.6601 148.359 81.8997C148.161 82.1289 148.016 82.3893 147.922 82.681C147.839 82.9726 147.797 83.2799 147.797 83.6028C147.797 83.9153 147.87 84.1966 148.016 84.4466C148.172 84.6862 148.38 84.8737 148.641 85.0091C148.901 85.1445 149.193 85.2122 149.516 85.2122C150.099 85.2122 150.594 85.1028 151 84.8841C151.417 84.6549 151.734 84.3789 151.953 84.056C152.172 83.7331 152.281 83.431 152.281 83.1497L153.438 85.306C153.229 85.7226 152.99 86.1445 152.719 86.5716C152.458 86.9987 152.13 87.3945 151.734 87.7591C151.349 88.1133 150.875 88.4049 150.312 88.6341C149.75 88.8528 149.068 88.9622 148.266 88.9622C147.224 88.9622 146.266 88.7487 145.391 88.3216C144.526 87.8945 143.833 87.3008 143.312 86.5403C142.792 85.7695 142.531 84.8841 142.531 83.8841C142.531 83.0091 142.688 82.2278 143 81.5403C143.323 80.8528 143.807 80.2695 144.453 79.7903C145.099 79.3112 145.922 78.9466 146.922 78.6966C147.922 78.4466 149.099 78.3216 150.453 78.3216H152.719ZM167.438 84.8997C167.927 84.8997 168.344 84.8112 168.688 84.6341C169.042 84.4466 169.307 84.1862 169.484 83.8528C169.672 83.5091 169.76 83.0976 169.75 82.6185H174.703C174.714 83.8893 174.401 85.0039 173.766 85.9622C173.141 86.9101 172.286 87.6497 171.203 88.181C170.13 88.7018 168.917 88.9622 167.562 88.9622C166.24 88.9622 165.083 88.7487 164.094 88.3216C163.104 87.8841 162.276 87.2799 161.609 86.5091C160.953 85.7278 160.458 84.8164 160.125 83.7747C159.802 82.7331 159.641 81.6028 159.641 80.3841V80.0247C159.641 78.806 159.802 77.6758 160.125 76.6341C160.458 75.582 160.953 74.6706 161.609 73.8997C162.276 73.1185 163.099 72.5143 164.078 72.0872C165.068 71.6497 166.219 71.431 167.531 71.431C168.938 71.431 170.177 71.6966 171.25 72.2278C172.333 72.7591 173.182 73.5299 173.797 74.5403C174.411 75.5508 174.714 76.7747 174.703 78.2122H169.75C169.76 77.7018 169.682 77.2435 169.516 76.8372C169.349 76.431 169.089 76.1081 168.734 75.8685C168.391 75.6185 167.948 75.4935 167.406 75.4935C166.865 75.4935 166.427 75.6133 166.094 75.8528C165.76 76.0924 165.505 76.4258 165.328 76.8528C165.161 77.2695 165.047 77.7487 164.984 78.2903C164.932 78.832 164.906 79.4101 164.906 80.0247V80.3841C164.906 81.0091 164.932 81.5976 164.984 82.1497C165.047 82.6914 165.167 83.1706 165.344 83.5872C165.521 83.9935 165.776 84.3164 166.109 84.556C166.443 84.7851 166.885 84.8997 167.438 84.8997ZM182.266 64.6341V88.6497H177V64.6341H182.266ZM193.078 71.7435L185.734 80.3528L181.891 84.1966L179.594 80.8528L182.797 76.681L186.766 71.7435H193.078ZM187.438 88.6497L182.922 80.9466L186.812 78.181L193.469 88.6497H187.438ZM202.328 88.9622C200.953 88.9622 199.724 88.7487 198.641 88.3216C197.557 87.8841 196.641 87.2851 195.891 86.5247C195.151 85.7643 194.583 84.8893 194.188 83.8997C193.802 82.9101 193.609 81.8633 193.609 80.7591V80.1653C193.609 78.9258 193.781 77.7799 194.125 76.7278C194.469 75.6653 194.979 74.7383 195.656 73.9466C196.333 73.1549 197.182 72.5403 198.203 72.1028C199.224 71.6549 200.411 71.431 201.766 71.431C202.964 71.431 204.036 71.6237 204.984 72.0091C205.932 72.3945 206.734 72.9466 207.391 73.6653C208.057 74.3841 208.562 75.2539 208.906 76.2747C209.26 77.2956 209.438 78.4414 209.438 79.7122V81.8528H195.625V78.556H204.297V78.1497C204.307 77.5872 204.208 77.1081 204 76.7122C203.802 76.3164 203.51 76.0143 203.125 75.806C202.74 75.5976 202.271 75.4935 201.719 75.4935C201.146 75.4935 200.672 75.6185 200.297 75.8685C199.932 76.1185 199.646 76.4622 199.438 76.8997C199.24 77.3268 199.099 77.8216 199.016 78.3841C198.932 78.9466 198.891 79.5403 198.891 80.1653V80.7591C198.891 81.3841 198.974 81.9518 199.141 82.4622C199.318 82.9726 199.568 83.4101 199.891 83.7747C200.224 84.1289 200.62 84.4049 201.078 84.6028C201.547 84.8008 202.078 84.8997 202.672 84.8997C203.391 84.8997 204.099 84.7643 204.797 84.4935C205.495 84.2226 206.094 83.7747 206.594 83.1497L208.984 85.9935C208.641 86.4831 208.151 86.957 207.516 87.4153C206.891 87.8737 206.141 88.2487 205.266 88.5403C204.391 88.8216 203.411 88.9622 202.328 88.9622ZM216.891 75.931V88.6497H211.625V71.7435H216.547L216.891 75.931ZM221.891 71.6185L221.797 76.5091C221.589 76.4883 221.307 76.4622 220.953 76.431C220.599 76.3997 220.302 76.3841 220.062 76.3841C219.448 76.3841 218.917 76.457 218.469 76.6028C218.031 76.7383 217.667 76.9466 217.375 77.2278C217.094 77.4987 216.885 77.8424 216.75 78.2591C216.625 78.6758 216.568 79.1601 216.578 79.7122L215.625 79.0872C215.625 77.9518 215.734 76.9206 215.953 75.9935C216.182 75.056 216.505 74.2487 216.922 73.5716C217.339 72.8841 217.844 72.3581 218.438 71.9935C219.031 71.6185 219.698 71.431 220.438 71.431C220.698 71.431 220.953 71.4466 221.203 71.4778C221.464 71.5091 221.693 71.556 221.891 71.6185Z" fill="black"/>
</svg>
