          <svg
            width="180"
            height="95"
            viewBox="0 0 180 95"
            fill="none"
            xmlns="http://www.w3.org/2000/svg"
          >
            <path
              fillRule="evenodd"
              clipRule="evenodd"
              d="M0 28.3488L4.20476 26.5468L10.6621 41.6139L23.4116 45.8638L21.9649 50.2036L7.26658 45.3042L0 28.3488Z"
              fill="#0F0F0F"
            />
            <path
              fillRule="evenodd"
              clipRule="evenodd"
              d="M0 92.8791L4.20476 94.6811L10.6621 79.614L23.4116 75.3642L21.9649 71.0243L7.26658 75.9237L0 92.8791Z"
              fill="#0F0F0F"
            />
            <path
              fillRule="evenodd"
              clipRule="evenodd"
              d="M76.6816 28.3488L72.4769 26.5468L66.0195 41.6139L53.27 45.8638L54.7167 50.2036L69.415 45.3042L76.6816 28.3488Z"
              fill="#0F0F0F"
            />
            <path
              fillRule="evenodd"
              clipRule="evenodd"
              d="M76.6816 92.8791L72.4769 94.6811L66.0195 79.614L53.27 75.3642L54.7167 71.0243L69.415 75.9237L76.6816 92.8791Z"
              fill="#0F0F0F"
            />
            <path
              d="M10.93 60.1583L28.6478 66.9398V73.2925L6.05154 63.3212V59.1129L10.93 60.1583ZM28.6478 54.6098L10.93 61.4985L6.05154 62.4367V58.2284L28.6478 48.2839V54.6098Z"
              fill="#0F0F0F"
            />
            <path
              d="M45.3648 47.176L35.2327 75.4279H31.8553L42.0053 47.176H45.3648Z"
              fill="#0F0F0F"
            />
            <path
              d="M65.7515 60.1583L48.0337 66.9398V73.2925L70.6299 63.3212V59.1129L65.7515 60.1583ZM48.0337 54.6098L65.7515 61.4985L70.6299 62.4367V58.2284L48.0337 48.2839V54.6098Z"
              fill="#0F0F0F"
            />
            <path
              fillRule="evenodd"
              clipRule="evenodd"
              d="M15.8262 4.57459C15.8262 2.04809 13.7781 -4.57764e-05 11.2515 -4.57764e-05C8.72505 -4.57764e-05 6.67691 2.04809 6.67691 4.57459C6.67691 6.48114 7.84322 8.11528 9.50128 8.80246L11.1503 18.6966L11.3743 20.0408L12.6396 20.5468L22.4121 24.4559L20.401 29.7351L38.6995 45.7464L56.9981 29.7351L54.9869 24.4559L64.7595 20.5468L66.0247 20.0408L66.2487 18.6966L67.8977 8.80246C69.5558 8.11528 70.7221 6.48114 70.7221 4.57459C70.7221 2.04809 68.674 -4.57764e-05 66.1475 -4.57764e-05C63.621 -4.57764e-05 61.5728 2.04809 61.5728 4.57459C61.5728 5.94056 62.1715 7.1667 63.1208 8.00492L61.6956 16.5563L53.2626 19.9295L50.8986 13.7239H26.5005L24.1364 19.9295L15.7034 16.5563L14.2782 8.00492C15.2275 7.1667 15.8262 5.94056 15.8262 4.57459Z"
              fill="#0F0F0F"
            />
            <path
              d="M95.7007 22.3047V40.6679H91.2864V22.3047H95.7007ZM105.765 36.8338C105.765 36.5984 105.685 36.3966 105.525 36.2284C105.374 36.0519 105.105 35.8921 104.718 35.7492C104.332 35.5978 103.789 35.4465 103.091 35.2951C102.427 35.1522 101.801 34.963 101.212 34.7276C100.632 34.4922 100.123 34.2063 99.6861 33.87C99.2489 33.5336 98.9041 33.1343 98.6519 32.6718C98.4081 32.2094 98.2861 31.6797 98.2861 31.0827C98.2861 30.5025 98.4081 29.956 98.6519 29.4431C98.9041 28.9218 99.2699 28.4636 99.7492 28.0684C100.237 27.6648 100.83 27.3495 101.527 27.1225C102.225 26.8871 103.02 26.7694 103.911 26.7694C105.139 26.7694 106.198 26.9585 107.089 27.3369C107.981 27.7069 108.666 28.2282 109.145 28.9008C109.633 29.565 109.877 30.3344 109.877 31.2088H105.626C105.626 30.8641 105.568 30.5698 105.45 30.326C105.341 30.0821 105.16 29.8972 104.908 29.771C104.655 29.6365 104.319 29.5692 103.899 29.5692C103.604 29.5692 103.335 29.6239 103.091 29.7332C102.856 29.8425 102.667 29.9938 102.524 30.1872C102.381 30.3806 102.309 30.6076 102.309 30.8683C102.309 31.0533 102.351 31.2214 102.436 31.3728C102.528 31.5157 102.667 31.6502 102.852 31.7764C103.037 31.8941 103.272 32.0034 103.558 32.1043C103.844 32.1968 104.189 32.2808 104.592 32.3565C105.509 32.5247 106.366 32.7643 107.165 33.0754C107.964 33.3865 108.611 33.8279 109.107 34.3997C109.612 34.9714 109.864 35.7408 109.864 36.7077C109.864 37.3131 109.725 37.8722 109.448 38.3851C109.17 38.8896 108.771 39.3352 108.25 39.722C107.728 40.1003 107.102 40.3946 106.371 40.6048C105.639 40.815 104.815 40.9201 103.899 40.9201C102.595 40.9201 101.494 40.6889 100.594 40.2265C99.6945 39.7556 99.0134 39.1671 98.551 38.4608C98.097 37.7461 97.8699 37.023 97.8699 36.2915H101.83C101.847 36.7119 101.948 37.0566 102.133 37.3257C102.326 37.5947 102.583 37.7923 102.902 37.9185C103.222 38.0446 103.592 38.1076 104.012 38.1076C104.399 38.1076 104.718 38.053 104.971 37.9437C105.231 37.8344 105.429 37.6872 105.563 37.5023C105.698 37.3089 105.765 37.0861 105.765 36.8338ZM119.008 36.8338C119.008 36.5984 118.928 36.3966 118.768 36.2284C118.617 36.0519 118.348 35.8921 117.961 35.7492C117.574 35.5978 117.032 35.4465 116.334 35.2951C115.67 35.1522 115.043 34.963 114.455 34.7276C113.875 34.4922 113.366 34.2063 112.929 33.87C112.492 33.5336 112.147 33.1343 111.895 32.6718C111.651 32.2094 111.529 31.6797 111.529 31.0827C111.529 30.5025 111.651 29.956 111.895 29.4431C112.147 28.9218 112.513 28.4636 112.992 28.0684C113.48 27.6648 114.072 27.3495 114.77 27.1225C115.468 26.8871 116.263 26.7694 117.154 26.7694C118.381 26.7694 119.441 26.9585 120.332 27.3369C121.223 27.7069 121.909 28.2282 122.388 28.9008C122.876 29.565 123.119 30.3344 123.119 31.2088H118.869C118.869 30.8641 118.81 30.5698 118.693 30.326C118.583 30.0821 118.402 29.8972 118.15 29.771C117.898 29.6365 117.562 29.5692 117.141 29.5692C116.847 29.5692 116.578 29.6239 116.334 29.7332C116.099 29.8425 115.909 29.9938 115.767 30.1872C115.624 30.3806 115.552 30.6076 115.552 30.8683C115.552 31.0533 115.594 31.2214 115.678 31.3728C115.771 31.5157 115.909 31.6502 116.094 31.7764C116.279 31.8941 116.515 32.0034 116.801 32.1043C117.087 32.1968 117.431 32.2808 117.835 32.3565C118.751 32.5247 119.609 32.7643 120.408 33.0754C121.207 33.3865 121.854 33.8279 122.35 34.3997C122.855 34.9714 123.107 35.7408 123.107 36.7077C123.107 37.3131 122.968 37.8722 122.691 38.3851C122.413 38.8896 122.014 39.3352 121.492 39.722C120.971 40.1003 120.345 40.3946 119.613 40.6048C118.882 40.815 118.058 40.9201 117.141 40.9201C115.838 40.9201 114.737 40.6889 113.837 40.2265C112.937 39.7556 112.256 39.1671 111.794 38.4608C111.34 37.7461 111.113 37.023 111.113 36.2915H115.073C115.09 36.7119 115.191 37.0566 115.376 37.3257C115.569 37.5947 115.825 37.7923 116.145 37.9185C116.464 38.0446 116.834 38.1076 117.255 38.1076C117.642 38.1076 117.961 38.053 118.213 37.9437C118.474 37.8344 118.672 37.6872 118.806 37.5023C118.941 37.3089 119.008 37.0861 119.008 36.8338ZM133.07 37.3509V27.0216H137.333V40.6679H133.348L133.07 37.3509ZM133.474 34.5762L134.584 34.551C134.584 35.4675 134.474 36.3167 134.256 37.0987C134.037 37.8722 133.714 38.5449 133.285 39.1166C132.864 39.6884 132.343 40.134 131.721 40.4535C131.107 40.7646 130.397 40.9201 129.589 40.9201C128.917 40.9201 128.299 40.8276 127.735 40.6427C127.18 40.4493 126.701 40.1508 126.298 39.7472C125.894 39.3352 125.579 38.8097 125.352 38.1707C125.133 37.5233 125.024 36.7497 125.024 35.8501V27.0216H129.274V35.8753C129.274 36.178 129.312 36.4386 129.388 36.6572C129.463 36.8759 129.573 37.0608 129.716 37.2122C129.858 37.3551 130.035 37.4644 130.245 37.5401C130.464 37.6074 130.712 37.641 130.989 37.641C131.628 37.641 132.129 37.5065 132.49 37.2374C132.852 36.9683 133.104 36.6026 133.247 36.1401C133.398 35.6777 133.474 35.1564 133.474 34.5762ZM146.288 40.9201C145.178 40.9201 144.186 40.7478 143.311 40.403C142.437 40.0499 141.697 39.5664 141.092 38.9526C140.495 38.3389 140.036 37.6326 139.717 36.8338C139.406 36.035 139.25 35.19 139.25 34.2988V33.8195C139.25 32.819 139.389 31.8941 139.666 31.0449C139.944 30.1872 140.356 29.4389 140.902 28.7999C141.449 28.1609 142.134 27.6648 142.958 27.3117C143.782 26.9501 144.741 26.7694 145.834 26.7694C146.801 26.7694 147.667 26.9249 148.432 27.236C149.197 27.5471 149.844 27.9927 150.374 28.5729C150.912 29.153 151.32 29.8551 151.598 30.6791C151.883 31.5031 152.026 32.428 152.026 33.4538V35.1816H140.877V32.5205H147.877V32.1926C147.885 31.7385 147.805 31.3517 147.637 31.0322C147.478 30.7127 147.242 30.4689 146.931 30.3007C146.62 30.1326 146.242 30.0485 145.796 30.0485C145.334 30.0485 144.951 30.1494 144.648 30.3512C144.354 30.553 144.123 30.8304 143.955 31.1836C143.795 31.5283 143.681 31.9277 143.614 32.3817C143.547 32.8358 143.513 33.315 143.513 33.8195V34.2988C143.513 34.8033 143.58 35.2615 143.715 35.6735C143.858 36.0855 144.06 36.4386 144.32 36.7329C144.589 37.0188 144.909 37.2416 145.279 37.4014C145.657 37.5611 146.086 37.641 146.565 37.641C147.145 37.641 147.717 37.5317 148.281 37.3131C148.844 37.0945 149.327 36.7329 149.731 36.2284L151.661 38.5238C151.383 38.919 150.988 39.3016 150.475 39.6715C149.971 40.0415 149.365 40.3442 148.659 40.5796C147.953 40.8066 147.162 40.9201 146.288 40.9201ZM99.8879 52.3047V70.6679H95.461V52.3047H99.8879ZM105.412 52.3047V55.7225H90.0631V52.3047H105.412ZM110.545 60.4016V70.6679H106.295V57.0216H110.268L110.545 60.4016ZM114.581 56.9207L114.505 60.8683C114.337 60.8515 114.11 60.8304 113.824 60.8052C113.538 60.78 113.299 60.7674 113.105 60.7674C112.609 60.7674 112.18 60.8262 111.819 60.944C111.466 61.0533 111.172 61.2214 110.936 61.4484C110.709 61.6671 110.541 61.9445 110.432 62.2808C110.331 62.6172 110.284 63.0081 110.293 63.4538L109.524 62.9493C109.524 62.0328 109.612 61.2004 109.788 60.4521C109.973 59.6954 110.234 59.0437 110.57 58.4972C110.907 57.9423 111.314 57.5177 111.794 57.2234C112.273 56.9207 112.811 56.7694 113.408 56.7694C113.618 56.7694 113.824 56.782 114.026 56.8072C114.236 56.8324 114.421 56.8702 114.581 56.9207ZM122.754 67.2374V61.6124C122.754 61.2256 122.699 60.8935 122.59 60.616C122.48 60.3386 122.308 60.1242 122.073 59.9728C121.837 59.8131 121.522 59.7332 121.127 59.7332C120.807 59.7332 120.534 59.7878 120.307 59.8972C120.08 60.0065 119.908 60.1704 119.79 60.389C119.672 60.6076 119.613 60.8851 119.613 61.2214H115.363C115.363 60.5908 115.502 60.0065 115.779 59.4683C116.065 58.9218 116.469 58.4468 116.99 58.0432C117.52 57.6396 118.15 57.3285 118.882 57.1099C119.622 56.8829 120.446 56.7694 121.354 56.7694C122.438 56.7694 123.405 56.9501 124.254 57.3117C125.112 57.6732 125.789 58.2155 126.285 58.9386C126.781 59.6533 127.029 60.553 127.029 61.6376V67.2248C127.029 68.116 127.08 68.7929 127.18 69.2553C127.281 69.7094 127.424 70.1088 127.609 70.4535V70.6679H123.346C123.145 70.2475 122.993 69.7346 122.892 69.1292C122.8 68.5154 122.754 67.8848 122.754 67.2374ZM123.271 62.3313L123.296 64.6015H121.417C121.022 64.6015 120.685 64.6561 120.408 64.7654C120.139 64.8747 119.92 65.0261 119.752 65.2195C119.592 65.4044 119.474 65.6146 119.399 65.8501C119.332 66.0855 119.298 66.3335 119.298 66.5942C119.298 66.8464 119.357 67.0734 119.474 67.2752C119.601 67.4686 119.769 67.62 119.979 67.7293C120.189 67.8386 120.425 67.8932 120.685 67.8932C121.156 67.8932 121.555 67.8049 121.883 67.6284C122.22 67.4434 122.476 67.2206 122.653 66.9599C122.829 66.6993 122.918 66.4554 122.918 66.2284L123.851 67.9689C123.683 68.3052 123.489 68.6458 123.271 68.9905C123.061 69.3352 122.796 69.6547 122.476 69.949C122.165 70.2349 121.783 70.4703 121.328 70.6553C120.874 70.8318 120.324 70.9201 119.676 70.9201C118.835 70.9201 118.062 70.7478 117.356 70.403C116.658 70.0583 116.099 69.579 115.678 68.9653C115.258 68.3431 115.048 67.6284 115.048 66.8212C115.048 66.1149 115.174 65.4843 115.426 64.9294C115.687 64.3745 116.078 63.9036 116.599 63.5168C117.12 63.1301 117.784 62.8358 118.592 62.634C119.399 62.4322 120.349 62.3313 121.442 62.3313H123.271ZM135.151 67.641C135.547 67.641 135.883 67.5695 136.16 67.4266C136.446 67.2752 136.661 67.065 136.804 66.796C136.955 66.5185 137.026 66.1864 137.018 65.7996H141.016C141.024 66.8254 140.772 67.7251 140.259 68.4986C139.755 69.2637 139.065 69.8607 138.191 70.2895C137.325 70.7099 136.345 70.9201 135.252 70.9201C134.184 70.9201 133.251 70.7478 132.452 70.403C131.654 70.0499 130.985 69.5622 130.447 68.94C129.917 68.3094 129.518 67.5737 129.249 66.7329C128.988 65.8921 128.858 64.9798 128.858 63.9961V63.706C128.858 62.7223 128.988 61.81 129.249 60.9692C129.518 60.12 129.917 59.3843 130.447 58.7621C130.985 58.1315 131.649 57.6438 132.44 57.2991C133.239 56.9459 134.168 56.7694 135.227 56.7694C136.362 56.7694 137.363 56.9838 138.229 57.4126C139.103 57.8414 139.788 58.4636 140.284 59.2792C140.781 60.0947 141.024 61.0827 141.016 62.243H137.018C137.026 61.831 136.963 61.4611 136.829 61.1331C136.694 60.8052 136.484 60.5446 136.198 60.3512C135.921 60.1494 135.563 60.0485 135.126 60.0485C134.689 60.0485 134.336 60.1452 134.067 60.3386C133.798 60.532 133.592 60.801 133.449 61.1458C133.314 61.4821 133.222 61.8688 133.171 62.3061C133.129 62.7433 133.108 63.2099 133.108 63.706V63.9961C133.108 64.5006 133.129 64.9756 133.171 65.4213C133.222 65.8585 133.318 66.2452 133.461 66.5816C133.604 66.9095 133.81 67.1701 134.079 67.3635C134.348 67.5485 134.706 67.641 135.151 67.641ZM147.12 51.2831V70.6679H142.87V51.2831H147.12ZM155.848 57.0216L149.92 63.9709L146.818 67.0734L144.964 64.3745L147.549 61.007L150.753 57.0216H155.848ZM151.295 70.6679L147.65 64.4501L150.79 62.2178L156.163 70.6679H151.295ZM163.314 70.9201C162.204 70.9201 161.212 70.7478 160.338 70.403C159.463 70.0499 158.723 69.5664 158.118 68.9526C157.521 68.3389 157.063 67.6326 156.743 66.8338C156.432 66.035 156.277 65.19 156.277 64.2988V63.8195C156.277 62.819 156.415 61.8941 156.693 61.0449C156.97 60.1872 157.382 59.4389 157.929 58.7999C158.475 58.1609 159.161 57.6648 159.985 57.3117C160.809 56.9501 161.767 56.7694 162.86 56.7694C163.827 56.7694 164.693 56.9249 165.458 57.236C166.223 57.5471 166.871 57.9927 167.4 58.5729C167.939 59.153 168.346 59.8551 168.624 60.6791C168.91 61.5031 169.053 62.428 169.053 63.4538V65.1816H157.904V62.5205H164.903V62.1926C164.912 61.7385 164.832 61.3517 164.664 61.0322C164.504 60.7127 164.268 60.4689 163.957 60.3007C163.646 60.1326 163.268 60.0485 162.822 60.0485C162.36 60.0485 161.977 60.1494 161.675 60.3512C161.38 60.553 161.149 60.8304 160.981 61.1836C160.821 61.5283 160.708 61.9277 160.64 62.3817C160.573 62.8358 160.54 63.315 160.54 63.8195V64.2988C160.54 64.8033 160.607 65.2615 160.741 65.6735C160.884 66.0855 161.086 66.4386 161.347 66.7329C161.616 67.0188 161.935 67.2416 162.305 67.4014C162.684 67.5611 163.112 67.641 163.592 67.641C164.172 67.641 164.744 67.5317 165.307 67.3131C165.87 67.0945 166.354 66.7329 166.757 66.2284L168.687 68.5238C168.409 68.919 168.014 69.3016 167.501 69.6715C166.997 70.0415 166.392 70.3442 165.685 70.5796C164.979 70.8066 164.189 70.9201 163.314 70.9201ZM175.069 60.4016V70.6679H170.818V57.0216H174.791L175.069 60.4016ZM179.105 56.9207L179.029 60.8683C178.861 60.8515 178.634 60.8304 178.348 60.8052C178.062 60.78 177.822 60.7674 177.629 60.7674C177.133 60.7674 176.704 60.8262 176.342 60.944C175.989 61.0533 175.695 61.2214 175.46 61.4484C175.233 61.6671 175.064 61.9445 174.955 62.2808C174.854 62.6172 174.808 63.0081 174.816 63.4538L174.047 62.9493C174.047 62.0328 174.135 61.2004 174.312 60.4521C174.497 59.6954 174.758 59.0437 175.094 58.4972C175.43 57.9423 175.838 57.5177 176.317 57.2234C176.797 56.9207 177.335 56.7694 177.932 56.7694C178.142 56.7694 178.348 56.782 178.55 56.8072C178.76 56.8324 178.945 56.8702 179.105 56.9207Z"
              fill="#0F0F0F"
            />
          </svg>