<svg
            width="45"
            height="92"
            viewBox="0 0 45 92"
            fill="none"
            xmlns="http://www.w3.org/2000/svg"
          >
            <path
              fillRule="evenodd"
              clipRule="evenodd"
              d="M0 34.8011L2.44253 33.7543L6.19358 42.5067L13.5997 44.9754L12.7594 47.4965L4.22113 44.6504L0 34.8011Z"
              fill="#0F0F0F"
            />
            <path
              fillRule="evenodd"
              clipRule="evenodd"
              d="M0 72.2865L2.44253 73.3333L6.19358 64.5809L13.5997 62.1122L12.7594 59.5911L4.22113 62.4372L0 72.2865Z"
              fill="#0F0F0F"
            />
            <path
              fillRule="evenodd"
              clipRule="evenodd"
              d="M44.5441 34.8011L42.1016 33.7543L38.3505 42.5067L30.9444 44.9754L31.7848 47.4965L40.323 44.6504L44.5441 34.8011Z"
              fill="#0F0F0F"
            />
            <path
              fillRule="evenodd"
              clipRule="evenodd"
              d="M44.5441 72.2865L42.1016 73.3333L38.3505 64.5809L30.9444 62.1122L31.7848 59.5911L40.323 62.4372L44.5441 72.2865Z"
              fill="#0F0F0F"
            />
            <path
              d="M6.34927 53.2791L16.6415 57.2185V60.9087L3.51541 55.1164V52.6718L6.34927 53.2791ZM16.6415 50.056L6.34927 54.0576L3.51541 54.6026V52.158L16.6415 46.3813V50.056Z"
              fill="#0F0F0F"
            />
            <path
              d="M26.3524 45.7377L20.4667 62.1492H18.5048L24.4009 45.7377H26.3524Z"
              fill="#0F0F0F"
            />
            <path
              d="M38.1949 53.2791L27.9027 57.2185V60.9087L41.0287 55.1164V52.6718L38.1949 53.2791ZM27.9027 50.056L38.1949 54.0576L41.0287 54.6026V52.158L27.9027 46.3813V50.056Z"
              fill="#0F0F0F"
            />
            <path
              fillRule="evenodd"
              clipRule="evenodd"
              d="M9.19351 20.9907C9.19351 19.5231 8.00376 18.3333 6.53612 18.3333C5.06848 18.3333 3.87872 19.5231 3.87872 20.9907C3.87872 22.0982 4.55622 23.0475 5.51938 23.4467L6.47729 29.1942L6.60743 29.975L7.34239 30.2689L13.0192 32.5397L11.8509 35.6064L22.4805 44.9073L33.1101 35.6064L31.9418 32.5397L37.6186 30.2689L38.3535 29.975L38.4837 29.1942L39.4416 23.4467C40.4048 23.0475 41.0823 22.0982 41.0823 20.9907C41.0823 19.5231 39.8925 18.3333 38.4249 18.3333C36.9572 18.3333 35.7675 19.5231 35.7675 20.9907C35.7675 21.7842 36.1152 22.4965 36.6667 22.9834L35.8388 27.9508L30.9401 29.9103L29.5669 26.3055H15.3941L14.0209 29.9103L9.12219 27.9508L8.29428 22.9834C8.84573 22.4965 9.19351 21.7842 9.19351 20.9907Z"
              fill="#0F0F0F"
            />
          </svg>