<svg width="180" height="95" viewBox="0 0 180 95" fill="none" xmlns="http://www.w3.org/2000/svg">
<path fill-rule="evenodd" clip-rule="evenodd" d="M0 28.566L4.20476 26.7639L10.6621 41.831L23.4116 46.0809L21.9649 50.4208L7.26658 45.5213L0 28.566Z" fill="black"/>
<path fill-rule="evenodd" clip-rule="evenodd" d="M0 93.0962L4.20476 94.8983L10.6621 79.8311L23.4116 75.5813L21.9649 71.2414L7.26658 76.1409L0 93.0962Z" fill="black"/>
<path fill-rule="evenodd" clip-rule="evenodd" d="M76.6816 28.566L72.4769 26.7639L66.0195 41.831L53.2701 46.0809L54.7167 50.4208L69.4151 45.5213L76.6816 28.566Z" fill="black"/>
<path fill-rule="evenodd" clip-rule="evenodd" d="M76.6816 93.0962L72.4769 94.8983L66.0195 79.8311L53.2701 75.5813L54.7167 71.2414L69.4151 76.1409L76.6816 93.0962Z" fill="black"/>
<path d="M10.9299 60.3754L28.6477 67.157V73.5096L6.05151 63.5383V59.33L10.9299 60.3754ZM28.6477 54.8269L10.9299 61.7156L6.05151 62.6538V58.4455L28.6477 48.501V54.8269Z" fill="black"/>
<path d="M45.3647 47.3931L35.2326 75.6451H31.8552L42.0052 47.3931H45.3647Z" fill="black"/>
<path d="M65.7515 60.3754L48.0337 67.157V73.5096L70.6299 63.5383V59.33L65.7515 60.3754ZM48.0337 54.8269L65.7515 61.7156L70.6299 62.6538V58.4455L48.0337 48.501V54.8269Z" fill="black"/>
<path fill-rule="evenodd" clip-rule="evenodd" d="M15.8263 4.79174C15.8263 2.26524 13.7781 0.217102 11.2516 0.217102C8.72514 0.217102 6.677 2.26524 6.677 4.79174C6.677 6.69829 7.84331 8.33243 9.50137 9.01961L11.1504 18.9138L11.3744 20.2579L12.6396 20.764L22.4122 24.673L20.401 29.9523L38.6996 45.9635L56.9982 29.9523L54.987 24.673L64.7596 20.764L66.0248 20.2579L66.2488 18.9138L67.8978 9.01961C69.5559 8.33243 70.7222 6.69829 70.7222 4.79174C70.7222 2.26524 68.6741 0.217102 66.1476 0.217102C63.6211 0.217102 61.5729 2.26524 61.5729 4.79174C61.5729 6.15771 62.1716 7.38385 63.1209 8.22207L61.6957 16.7734L53.2627 20.1466L50.8986 13.941H26.5006L24.1365 20.1466L15.7035 16.7734L14.2783 8.22207C15.2276 7.38385 15.8263 6.15771 15.8263 4.79174Z" fill="black"/>
<path d="M95.7007 22.5218V40.885H91.2865V22.5218H95.7007ZM105.765 37.051C105.765 36.8155 105.685 36.6137 105.526 36.4456C105.374 36.269 105.105 36.1093 104.718 35.9663C104.332 35.815 103.789 35.6636 103.091 35.5123C102.427 35.3693 101.801 35.1802 101.212 34.9447C100.632 34.7093 100.123 34.4234 99.6861 34.0871C99.2489 33.7508 98.9042 33.3514 98.6519 32.889C98.4081 32.4265 98.2862 31.8968 98.2862 31.2998C98.2862 30.7197 98.4081 30.1732 98.6519 29.6603C98.9042 29.139 99.2699 28.6807 99.7492 28.2855C100.237 27.882 100.83 27.5667 101.527 27.3396C102.225 27.1042 103.02 26.9865 103.911 26.9865C105.139 26.9865 106.198 27.1757 107.089 27.554C107.981 27.924 108.666 28.4453 109.145 29.1179C109.633 29.7822 109.877 30.5515 109.877 31.426H105.626C105.626 31.0812 105.568 30.7869 105.45 30.5431C105.341 30.2993 105.16 30.1143 104.908 29.9882C104.655 29.8537 104.319 29.7864 103.899 29.7864C103.604 29.7864 103.335 29.841 103.091 29.9503C102.856 30.0596 102.667 30.211 102.524 30.4044C102.381 30.5978 102.309 30.8248 102.309 31.0854C102.309 31.2704 102.351 31.4386 102.436 31.5899C102.528 31.7329 102.667 31.8674 102.852 31.9935C103.037 32.1112 103.272 32.2205 103.558 32.3214C103.844 32.4139 104.189 32.498 104.592 32.5737C105.509 32.7418 106.366 32.9815 107.165 33.2926C107.964 33.6037 108.611 34.0451 109.107 34.6168C109.612 35.1886 109.864 35.9579 109.864 36.9248C109.864 37.5302 109.725 38.0894 109.448 38.6022C109.17 39.1067 108.771 39.5524 108.25 39.9391C107.728 40.3175 107.102 40.6118 106.371 40.822C105.639 41.0322 104.815 41.1373 103.899 41.1373C102.595 41.1373 101.494 40.9061 100.594 40.4436C99.6945 39.9728 99.0135 39.3842 98.551 38.6779C98.097 37.9632 97.87 37.2401 97.87 36.5086H101.83C101.847 36.929 101.948 37.2738 102.133 37.5428C102.326 37.8119 102.583 38.0095 102.902 38.1356C103.222 38.2617 103.592 38.3248 104.012 38.3248C104.399 38.3248 104.718 38.2701 104.971 38.1608C105.231 38.0515 105.429 37.9044 105.563 37.7194C105.698 37.526 105.765 37.3032 105.765 37.051ZM119.008 37.051C119.008 36.8155 118.928 36.6137 118.768 36.4456C118.617 36.269 118.348 36.1093 117.961 35.9663C117.574 35.815 117.032 35.6636 116.334 35.5123C115.67 35.3693 115.043 35.1802 114.455 34.9447C113.875 34.7093 113.366 34.4234 112.929 34.0871C112.492 33.7508 112.147 33.3514 111.895 32.889C111.651 32.4265 111.529 31.8968 111.529 31.2998C111.529 30.7197 111.651 30.1732 111.895 29.6603C112.147 29.139 112.513 28.6807 112.992 28.2855C113.48 27.882 114.072 27.5667 114.77 27.3396C115.468 27.1042 116.263 26.9865 117.154 26.9865C118.381 26.9865 119.441 27.1757 120.332 27.554C121.223 27.924 121.909 28.4453 122.388 29.1179C122.876 29.7822 123.119 30.5515 123.119 31.426H118.869C118.869 31.0812 118.81 30.7869 118.693 30.5431C118.583 30.2993 118.402 30.1143 118.15 29.9882C117.898 29.8537 117.562 29.7864 117.141 29.7864C116.847 29.7864 116.578 29.841 116.334 29.9503C116.099 30.0596 115.909 30.211 115.767 30.4044C115.624 30.5978 115.552 30.8248 115.552 31.0854C115.552 31.2704 115.594 31.4386 115.678 31.5899C115.771 31.7329 115.909 31.8674 116.094 31.9935C116.279 32.1112 116.515 32.2205 116.801 32.3214C117.087 32.4139 117.431 32.498 117.835 32.5737C118.751 32.7418 119.609 32.9815 120.408 33.2926C121.207 33.6037 121.854 34.0451 122.35 34.6168C122.855 35.1886 123.107 35.9579 123.107 36.9248C123.107 37.5302 122.968 38.0894 122.691 38.6022C122.413 39.1067 122.014 39.5524 121.492 39.9391C120.971 40.3175 120.345 40.6118 119.613 40.822C118.882 41.0322 118.058 41.1373 117.141 41.1373C115.838 41.1373 114.737 40.9061 113.837 40.4436C112.937 39.9728 112.256 39.3842 111.794 38.6779C111.34 37.9632 111.113 37.2401 111.113 36.5086H115.073C115.09 36.929 115.191 37.2738 115.376 37.5428C115.569 37.8119 115.825 38.0095 116.145 38.1356C116.464 38.2617 116.834 38.3248 117.255 38.3248C117.642 38.3248 117.961 38.2701 118.213 38.1608C118.474 38.0515 118.672 37.9044 118.806 37.7194C118.941 37.526 119.008 37.3032 119.008 37.051ZM133.07 37.5681V27.2387H137.333V40.885H133.348L133.07 37.5681ZM133.474 34.7934L134.584 34.7682C134.584 35.6846 134.475 36.5339 134.256 37.3158C134.037 38.0894 133.714 38.762 133.285 39.3338C132.864 39.9055 132.343 40.3511 131.721 40.6706C131.107 40.9817 130.397 41.1373 129.589 41.1373C128.917 41.1373 128.299 41.0448 127.735 40.8598C127.181 40.6664 126.701 40.3679 126.298 39.9644C125.894 39.5524 125.579 39.0269 125.352 38.3878C125.133 37.7404 125.024 36.9669 125.024 36.0672V27.2387H129.274V36.0924C129.274 36.3951 129.312 36.6558 129.388 36.8744C129.463 37.093 129.573 37.278 129.716 37.4293C129.858 37.5723 130.035 37.6816 130.245 37.7572C130.464 37.8245 130.712 37.8581 130.989 37.8581C131.628 37.8581 132.129 37.7236 132.49 37.4545C132.852 37.1855 133.104 36.8197 133.247 36.3573C133.398 35.8948 133.474 35.3735 133.474 34.7934ZM146.288 41.1373C145.178 41.1373 144.186 40.9649 143.311 40.6202C142.437 40.267 141.697 39.7836 141.092 39.1698C140.495 38.556 140.036 37.8497 139.717 37.051C139.406 36.2522 139.25 35.4072 139.25 34.5159V34.0367C139.25 33.0361 139.389 32.1112 139.667 31.262C139.944 30.4044 140.356 29.6561 140.902 29.017C141.449 28.378 142.134 27.882 142.958 27.5288C143.782 27.1673 144.741 26.9865 145.834 26.9865C146.801 26.9865 147.667 27.142 148.432 27.4531C149.197 27.7642 149.844 28.2099 150.374 28.79C150.912 29.3702 151.32 30.0723 151.598 30.8963C151.883 31.7202 152.026 32.6451 152.026 33.6709V35.3988H140.877V32.7376H147.877V32.4097C147.885 31.9557 147.806 31.5689 147.637 31.2494C147.478 30.9299 147.242 30.686 146.931 30.5179C146.62 30.3497 146.242 30.2656 145.796 30.2656C145.334 30.2656 144.951 30.3665 144.648 30.5683C144.354 30.7701 144.123 31.0476 143.955 31.4007C143.795 31.7455 143.681 32.1448 143.614 32.5989C143.547 33.0529 143.513 33.5322 143.513 34.0367V34.5159C143.513 35.0204 143.58 35.4787 143.715 35.8906C143.858 36.3026 144.06 36.6558 144.32 36.9501C144.589 37.2359 144.909 37.4588 145.279 37.6185C145.657 37.7783 146.086 37.8581 146.565 37.8581C147.145 37.8581 147.717 37.7488 148.281 37.5302C148.844 37.3116 149.327 36.9501 149.731 36.4456L151.661 38.741C151.383 39.1362 150.988 39.5187 150.475 39.8887C149.971 40.2586 149.365 40.5613 148.659 40.7968C147.953 41.0238 147.162 41.1373 146.288 41.1373ZM99.8879 52.5218V70.885H95.4611V52.5218H99.8879ZM105.412 52.5218V55.9397H90.0631V52.5218H105.412ZM110.545 60.6188V70.885H106.295V57.2387H110.268L110.545 60.6188ZM114.581 57.1378L114.505 61.0854C114.337 61.0686 114.11 61.0476 113.824 61.0224C113.538 60.9971 113.299 60.9845 113.105 60.9845C112.609 60.9845 112.181 61.0434 111.819 61.1611C111.466 61.2704 111.172 61.4386 110.936 61.6656C110.709 61.8842 110.541 62.1617 110.432 62.498C110.331 62.8343 110.284 63.2253 110.293 63.6709L109.524 63.1664C109.524 62.25 109.612 61.4176 109.788 60.6692C109.973 59.9125 110.234 59.2609 110.57 58.7144C110.907 58.1594 111.314 57.7348 111.794 57.4405C112.273 57.1378 112.811 56.9865 113.408 56.9865C113.618 56.9865 113.824 56.9991 114.026 57.0243C114.236 57.0496 114.421 57.0874 114.581 57.1378ZM122.754 67.4545V61.8295C122.754 61.4428 122.699 61.1107 122.59 60.8332C122.48 60.5557 122.308 60.3413 122.073 60.19C121.837 60.0302 121.522 59.9503 121.127 59.9503C120.807 59.9503 120.534 60.005 120.307 60.1143C120.08 60.2236 119.908 60.3876 119.79 60.6062C119.672 60.8248 119.613 61.1022 119.613 61.4386H115.363C115.363 60.808 115.502 60.2236 115.779 59.6855C116.065 59.139 116.469 58.6639 116.99 58.2603C117.52 57.8567 118.15 57.5456 118.882 57.327C119.622 57.1 120.446 56.9865 121.354 56.9865C122.438 56.9865 123.405 57.1673 124.255 57.5288C125.112 57.8904 125.789 58.4327 126.285 59.1558C126.781 59.8705 127.029 60.7701 127.029 61.8548V67.4419C127.029 68.3332 127.08 69.01 127.181 69.4725C127.281 69.9265 127.424 70.3259 127.609 70.6706V70.885H123.346C123.145 70.4646 122.993 69.9517 122.892 69.3464C122.8 68.7326 122.754 68.102 122.754 67.4545ZM123.271 62.5484L123.296 64.8186H121.417C121.022 64.8186 120.685 64.8733 120.408 64.9826C120.139 65.0919 119.92 65.2432 119.752 65.4366C119.592 65.6216 119.475 65.8318 119.399 66.0672C119.332 66.3026 119.298 66.5507 119.298 66.8113C119.298 67.0636 119.357 67.2906 119.475 67.4924C119.601 67.6858 119.769 67.8371 119.979 67.9464C120.189 68.0557 120.425 68.1104 120.685 68.1104C121.156 68.1104 121.556 68.0221 121.883 67.8455C122.22 67.6605 122.476 67.4377 122.653 67.1771C122.829 66.9164 122.918 66.6726 122.918 66.4456L123.851 68.186C123.683 68.5224 123.489 68.8629 123.271 69.2076C123.061 69.5524 122.796 69.8719 122.476 70.1662C122.165 70.452 121.783 70.6875 121.328 70.8724C120.874 71.049 120.324 71.1373 119.676 71.1373C118.836 71.1373 118.062 70.9649 117.356 70.6202C116.658 70.2755 116.099 69.7962 115.678 69.1824C115.258 68.5602 115.048 67.8455 115.048 67.0383C115.048 66.3321 115.174 65.7015 115.426 65.1465C115.687 64.5916 116.078 64.1207 116.599 63.734C117.12 63.3472 117.784 63.0529 118.592 62.8511C119.399 62.6493 120.349 62.5484 121.442 62.5484H123.271ZM135.151 67.8581C135.547 67.8581 135.883 67.7867 136.16 67.6437C136.446 67.4924 136.661 67.2822 136.804 67.0131C136.955 66.7357 137.026 66.4035 137.018 66.0168H141.016C141.024 67.0426 140.772 67.9422 140.259 68.7158C139.755 69.4809 139.065 70.0779 138.191 70.5067C137.325 70.9271 136.345 71.1373 135.252 71.1373C134.184 71.1373 133.251 70.9649 132.452 70.6202C131.654 70.267 130.985 69.7794 130.447 69.1572C129.917 68.5266 129.518 67.7909 129.249 66.9501C128.988 66.1093 128.858 65.197 128.858 64.2132V63.9232C128.858 62.9394 128.988 62.0271 129.249 61.1863C129.518 60.3371 129.917 59.6014 130.447 58.9792C130.985 58.3486 131.649 57.8609 132.44 57.5162C133.239 57.1631 134.168 56.9865 135.227 56.9865C136.362 56.9865 137.363 57.2009 138.229 57.6297C139.103 58.0585 139.788 58.6807 140.284 59.4963C140.781 60.3119 141.024 61.2998 141.016 62.4602H137.018C137.026 62.0482 136.963 61.6782 136.829 61.3503C136.694 61.0224 136.484 60.7617 136.198 60.5683C135.921 60.3665 135.563 60.2656 135.126 60.2656C134.689 60.2656 134.336 60.3623 134.067 60.5557C133.798 60.7491 133.592 61.0182 133.449 61.3629C133.314 61.6992 133.222 62.086 133.171 62.5232C133.129 62.9604 133.108 63.4271 133.108 63.9232V64.2132C133.108 64.7177 133.129 65.1928 133.171 65.6384C133.222 66.0756 133.318 66.4624 133.461 66.7987C133.604 67.1266 133.81 67.3873 134.079 67.5807C134.348 67.7656 134.706 67.8581 135.151 67.8581ZM147.12 51.5002V70.885H142.87V51.5002H147.12ZM155.848 57.2387L149.92 64.188L146.818 67.2906L144.964 64.5916L147.549 61.2242L150.753 57.2387H155.848ZM151.295 70.885L147.65 64.6673L150.79 62.4349L156.163 70.885H151.295ZM163.314 71.1373C162.204 71.1373 161.212 70.9649 160.338 70.6202C159.463 70.267 158.723 69.7836 158.118 69.1698C157.521 68.556 157.063 67.8497 156.743 67.051C156.432 66.2522 156.277 65.4072 156.277 64.5159V64.0367C156.277 63.0361 156.415 62.1112 156.693 61.262C156.97 60.4044 157.382 59.6561 157.929 59.017C158.475 58.378 159.161 57.882 159.985 57.5288C160.809 57.1673 161.767 56.9865 162.86 56.9865C163.827 56.9865 164.693 57.142 165.458 57.4531C166.223 57.7642 166.871 58.2099 167.401 58.79C167.939 59.3702 168.346 60.0723 168.624 60.8963C168.91 61.7202 169.053 62.6451 169.053 63.6709V65.3988H157.904V62.7376H164.903V62.4097C164.912 61.9557 164.832 61.5689 164.664 61.2494C164.504 60.9299 164.269 60.686 163.957 60.5179C163.646 60.3497 163.268 60.2656 162.822 60.2656C162.36 60.2656 161.977 60.3665 161.675 60.5683C161.38 60.7701 161.149 61.0476 160.981 61.4007C160.821 61.7455 160.708 62.1448 160.64 62.5989C160.573 63.0529 160.54 63.5322 160.54 64.0367V64.5159C160.54 65.0204 160.607 65.4787 160.741 65.8906C160.884 66.3026 161.086 66.6558 161.347 66.9501C161.616 67.2359 161.935 67.4588 162.305 67.6185C162.684 67.7783 163.112 67.8581 163.592 67.8581C164.172 67.8581 164.744 67.7488 165.307 67.5302C165.87 67.3116 166.354 66.9501 166.757 66.4456L168.687 68.741C168.409 69.1362 168.014 69.5187 167.501 69.8887C166.997 70.2586 166.392 70.5613 165.685 70.7968C164.979 71.0238 164.189 71.1373 163.314 71.1373ZM175.069 60.6188V70.885H170.818V57.2387H174.791L175.069 60.6188ZM179.105 57.1378L179.029 61.0854C178.861 61.0686 178.634 61.0476 178.348 61.0224C178.062 60.9971 177.822 60.9845 177.629 60.9845C177.133 60.9845 176.704 61.0434 176.343 61.1611C175.989 61.2704 175.695 61.4386 175.46 61.6656C175.233 61.8842 175.064 62.1617 174.955 62.498C174.854 62.8343 174.808 63.2253 174.816 63.6709L174.047 63.1664C174.047 62.25 174.135 61.4176 174.312 60.6692C174.497 59.9125 174.758 59.2609 175.094 58.7144C175.43 58.1594 175.838 57.7348 176.317 57.4405C176.797 57.1378 177.335 56.9865 177.932 56.9865C178.142 56.9865 178.348 56.9991 178.55 57.0243C178.76 57.0496 178.945 57.0874 179.105 57.1378Z" fill="black"/>
</svg>
